<svg version="1" xmlns="http://www.w3.org/2000/svg" width="613.333" height="613.333" viewBox="0 0 460.000000 460.000000"><path d="M137.7 4.4c-2.6.7-6.5 2.7-8.6 4.4-2.2 1.8-5.1 3.7-6.5 4.3-1.4.7-2.6 1.5-2.6 1.9 0 .4-2.6 2.7-5.7 5.2-10 7.9-23.3 21.7-32.8 34.2-9 11.7-21 31.9-24.5 41.2-1.1 2.9-2.4 6.2-3 7.1-1.9 3.6-4.3 9.9-5.5 15.3-.7 3-2.7 10.8-4.4 17.2-1.6 6.4-3.4 15.4-3.9 20-1 9.5-.8 48.3.3 54.2 3.2 17.8 8.9 38.4 12.9 47.1 1.8 3.9 3.6 8.3 4 9.9.4 1.5 2.5 5.7 4.6 9.3 2.2 3.6 4 6.8 4 7.3 0 .4 2 3.8 4.5 7.4 2.5 3.7 4.5 7.1 4.5 7.4 0 .4 2.3 3.4 5 6.7 2.8 3.3 5 6.3 5 6.8 0 .4 1.7 2.5 3.8 4.6 2 2 6.2 6.4 9.3 9.7 5.3 5.4 8.7 8.6 20.9 19.2 2.5 2.2 5.5 4.3 6.7 4.6 1.3.4 2.3 1.1 2.3 1.6 0 .8 10.4 7.5 21.3 13.7 10.8 6.3 44.8 18.7 53.8 19.8 2.4.3 9.4 1.3 15.4 2.3l11 1.7v20.9l-11.1 1.7c-9.9 1.4-26.3 6-28.9 7.9-.5.4-2.5 1.1-4.3 1.5-3.8.8-7.7 2.6-15.3 7.1-8.9 5.3-11.6 14.2-7.1 23.1 1.7 3.2 3.2 4.5 7.4 6.2 5.3 2.1 5.6 2.1 78.8 1.9 71.2-.3 73.6-.4 77.4-2.3 7.2-3.7 10-12.9 6.5-21.4-1.9-4.5-2.6-5.1-12-10-5.4-2.9-9.9-5-9.9-4.6 0 .3-1.7-.2-3.7-1.1-7-3-21-7.2-25.9-7.8-2.7-.4-6.9-.9-9.4-1.3s-4.9-.7-5.5-.8c-.6 0-1-4.3-1-10.8-.1-10.1 0-10.7 2-10.8 2.7-.1 6.6-.6 14.5-1.9 3.6-.6 7.9-1.2 9.5-1.4 4.5-.6 12.4-2.7 18-4.9 2.8-1 8.2-2.9 12-4.1 8-2.7 25.6-10.9 30-14.2 1.7-1.2 4-2.5 5.2-2.8 3.6-1.1 10.3-8 11.8-12.2 1.6-4.7 1.1-11.6-1.2-15.6-4.8-8-17-10.6-24.9-5.1-13.7 9.4-41.7 21.2-56.9 23.8-5 .8-10.2 1.7-11.5 2-10 1.9-31.6 2.6-44 1.3-16.7-1.8-29.9-4.8-40.5-9.3-1.6-.7-5.5-2-8.5-3s-5.9-2.1-6.5-2.5c-.5-.4-4.6-2.7-9-5.1-4.4-2.3-10.1-5.8-12.6-7.6-2.6-1.8-5-3.3-5.5-3.3s-1.7-.8-2.5-1.8c-2-2.1-5.7-5.2-6.4-5.2-2 0-23.6-22.4-28-29-1.2-1.9-3.7-5-5.4-6.9-1.7-1.9-3.1-3.9-3.1-4.5 0-.6-1.4-3.1-3.1-5.6-3.5-5.2-13.7-26-14.3-29.3-.2-1.2-1.5-5.8-2.9-10.2-5.8-18.1-6.2-21.5-6.1-51.5 0-21.7.3-25.5 2.2-33 3.3-13.2 8.7-29.1 12.1-35.9 1.7-3.3 3.1-6.2 3-6.3-.4-.6 4.1-8.5 6-10.7 1.2-1.3 2.1-2.9 2.1-3.6 0-1.3 11.7-17.2 16.5-22.4 10.1-11.1 21.1-20.9 29.6-26.6 13.4-9.1 16.5-18.2 9.8-28.6-2.7-4.2-4.6-5.7-8.4-6.5-.5-.1-2.1-.4-3.5-.7-1.4-.4-4.6 0-7.3.7z"/><path d="M245.8 21.5c-.2.2-5.5.5-11.8.9-13.8.7-15.7 1-26.3 4.3-4.5 1.3-10.2 3-12.7 3.7-2.5.7-8.2 3.2-12.7 5.5-4.6 2.3-8.3 3.9-8.3 3.7 0-.7-16.1 9.9-18.8 12.3-1.2 1.2-3.5 2.9-5 3.8-3.6 2.3-19.9 18.7-23.6 23.8-1.6 2.2-3.6 4.7-4.3 5.5-5.3 5.7-20 33.1-20.9 38.9-.2 1.4-1 4.2-1.8 6.1-5 13.1-6.8 24.2-7.1 43.8-.1 9.5.2 20.3.7 24 1 7.3 5.3 24.7 6.8 27.4.5.9 1.2 3.1 1.5 4.7.6 3.4 6.3 15.9 7.6 16.7.5.3.9 1.3.9 2.2 0 1.6 9.4 17.1 12.3 20.2.7.8 2.7 3.3 4.3 5.5 4.3 5.9 19.4 20.8 24.2 24 2.3 1.5 4.2 3.1 4.2 3.4 0 .4 1.9 1.8 4.3 3.1 2.3 1.3 4.7 2.8 5.2 3.2 2.2 1.8 8.6 5.8 9.3 5.8.4 0 4.3 1.8 8.7 3.9 8.9 4.4 13 5.9 29 10.3 10.4 2.9 12.2 3.1 32 3.4 26.9.4 31.9-.3 53.5-7.3 11.5-3.7 30.4-12.8 35.1-16.8 1.7-1.4 3.5-2.5 4.1-2.5.6 0 3.2-1.8 5.7-4 16.7-14.5 15.9-13.8 21.8-20.6 8.8-10.1 11.3-13.2 11.3-13.8 0-.3 1.7-3.2 3.9-6.4 9.6-14.2 19.7-40.2 22.6-58.3 2.4-15.2 1.4-48.2-1.9-59.4-.1-.6-.8-3-1.5-5.5-.6-2.5-1.8-6.1-2.5-8-.7-1.9-2.1-6-3.1-9-.9-3-2.5-6.6-3.4-8-1-1.4-2.4-4.1-3.1-6-3.8-9.8-21.1-33-31.4-42.1C342.1 52.9 336 48 334.9 48c-.5 0-3-1.5-5.6-3.4-7.3-5.1-22.7-12.2-33.8-15.6-16.5-5.1-20.5-5.9-32-6.5-6-.4-12.5-.8-14.2-.9-1.8-.2-3.4-.2-3.5-.1zM264 50.4c7.7 1.4 9.7 1.8 13.3 2.7l3.8 1-2.4 2c-1.4 1-2.9 1.9-3.3 1.9-.4 0-2.3 1.2-4.2 2.7-2 1.6-4.9 3.5-6.6 4.4-2.9 1.6-3.1 1.6-7.1-1.5-2.2-1.7-4.4-3.7-4.8-4.4-.4-.6-1.4-1.2-2.1-1.2-1.4 0-12.6-7.2-12.6-8.1 0-.7 21.4-.3 26 .5zm-55.4 18.1c10 4 19.8 8.9 24.2 12.3l3.4 2.5-4.9 3.1c-2.6 1.7-5.4 3.6-6.1 4.3-.7.7-1.8 1.3-2.3 1.3-.6 0-3.9 2-7.3 4.5-3.5 2.5-6.7 4.5-7.2 4.6-.5 0-2.9 1.6-5.4 3.4-2.5 1.9-6.3 4.4-8.5 5.6-2.2 1.2-4.2 2.5-4.5 2.9-.3.4-4.1 2.8-8.5 5.5-4.4 2.6-9.3 5.9-10.9 7.2-1.6 1.3-3 2.2-3.2 2-1.9-1.9-3.4-27.6-2-33.2.3-1.1.9-3.6 1.4-5.5.9-3.7 5.2-12.4 7.4-15 2-2.4 7.6-6.1 10.6-7 4.1-1.2 19.4-.2 23.8 1.5zM321.1 73c9.9 6.6 25.6 22 24.5 23.9-.4.6-2.8 2.3-5.4 3.8-2.6 1.4-6.8 4.1-9.3 6-2.6 1.8-4.9 3.3-5.3 3.3-.7 0-9.5 6-11.4 7.7-2.2 2.1-3.6 1.5-6.2-2.5-4.1-6.2-11.8-15.6-19.3-23.5-2.6-2.7-4.6-5.1-4.4-5.3 1-1.1 13.6-9.2 16.6-10.8 2-1 3.8-2.2 4.1-2.6.3-.4 2.3-1.8 4.5-3.2 2.9-1.8 4.3-2.2 5.2-1.4.6.6 3.5 2.7 6.4 4.6zm-56.7 34.3c10.8 11.4 22.6 25.6 22.6 27.2 0 .7-1.2 1.7-2.7 2.4-1.6.7-5 2.7-7.8 4.6-5.7 3.7-16.1 10.5-18.4 12-.9.5-4.8 3.1-8.8 5.7-3.9 2.7-7.5 4.8-7.9 4.8-.4 0-3.1 1.8-6 4s-5.6 4-6 4c-.4 0-4 2.2-8 5-4 2.7-7.6 5-8.1 5s-2.4 1.2-4.3 2.8c-4.2 3.3-16 10.5-16.5 10.1-.9-1-10.3-19.7-11-21.9-.4-1.4-2.1-5.3-3.6-8.7-1.6-3.3-2.9-6.6-2.9-7.2 0-.6 1.4-1.8 3.2-2.7 1.8-.9 3.8-2.3 4.6-3 .7-.8 4.4-3.2 8.2-5.4 3.8-2.2 7.5-4.6 8.3-5.4.8-.8 3-2.3 5-3.3 3.4-1.8 9.2-5.5 20.9-13.4 3.1-2.2 5.9-3.9 6.2-3.9.2 0 3.3-1.9 6.8-4.2 3.5-2.4 7.9-5.1 9.8-6.1 1.9-1 4-2.4 4.5-3 1-1.2 5.6-4.6 6.4-4.6.3-.1 2.7 2.3 5.5 5.2zm-126.9 14.8c.3 3.5 1 8.6 1.6 11.4 2.2 10.1 2.2 11.3.1 11.9-1 .4-2.7 1.4-3.8 2.4-3.6 3.2-12.4 8.6-13 7.9-.6-.5 3.7-17 4.7-18.2.4-.6 1.1-2.6 1.4-4.5.5-3.2 7.6-18.2 8.2-17.6.2.1.5 3.2.8 6.7zm229.9 11c.2 1.3 1.3 5.2 2.4 8.7 1.2 3.4 2.4 7.9 2.7 10 .3 2 .9 5.3 1.3 7.2l.8 3.5-9.6 6.1c-5.2 3.4-11.4 7.6-13.8 9.3-2.3 1.7-4.8 3.1-5.5 3.1-.8 0-2.8-3.9-4.7-8.8-1.8-4.8-3.6-8.9-3.9-9.2-.9-.8-10.4-20-10-20.3.2-.2 2.2-1.4 4.4-2.8 6.5-4 7.8-4.8 13-8.2 2.7-1.8 7.7-5 11-7.3l6-4.1 2.7 5.2c1.5 2.9 2.9 6.3 3.2 7.6zm-58.1 37.7c3.1 6.4 5.7 12 5.7 12.4 0 .4 1.1 3.1 2.4 6 3.6 8.3 3.7 8.8 1.8 9.5-.9.3-4.8 2.6-8.7 5.1-7.3 4.8-18.8 12.1-21.6 13.7-1.6 1-7.4 4.8-19.9 13.2-3.6 2.3-7.1 4.3-7.8 4.3-.6 0-1.2.3-1.2.7 0 .5-2.8 2.6-6.3 4.7-3.4 2.2-8.8 5.7-11.9 7.8l-5.7 3.9-5.8-6.2c-3.2-3.5-7.3-7.8-9.1-9.7-1.8-1.9-3.7-4.3-4.2-5.3-.6-1-2.8-3.9-5.1-6.5-3.8-4.4-3.9-4.7-2.3-6.5.9-1.1 2.3-1.9 3-1.9.8 0 3.4-1.5 5.8-3.3 2.4-1.7 8.1-5.5 12.6-8.2 4.5-2.8 9.6-6 11.3-7.2 1.8-1.2 6.7-4.3 11-6.8 4.2-2.6 7.7-5.1 7.7-5.5 0-.5.9-1.1 1.9-1.5 1.1-.3 5.7-3.1 10.2-6 4.5-3 8.3-5.5 8.5-5.5.2 0 3.6-2.2 7.6-4.8 11.6-7.7 12.2-8.1 13.3-8.1.6 0 3.6 5.2 6.8 11.7zm-154.2 12.7c1 2.8 4.5 10 7.8 16 5.2 9.8 5.7 11.1 4.2 12.2-.9.7-2.1 1.6-2.7 2.2-.6.5-2.6 1.6-4.4 2.6-1.8.9-5.4 3.2-8 5.1-2.6 1.9-5 3.4-5.3 3.4-.9 0-9.6 6-10.2 7.1-1.3 2.1-3.3.7-5.3-3.9-2-4.4-7.8-22.5-8.6-26.8-1.9-10.1-1.9-10 1.2-12 1.6-1.1 4.9-3.2 7.3-4.8 21.3-14.2 19-13.2 20.7-9.3.7 1.8 2.2 5.5 3.3 8.2zm216.5 22.8c-.9 2.9-2.3 7.7-3.2 10.7-1.8 6.2-8.2 20-9.3 20-.4 0-.8-1.9-.9-4.3-.2-2.3-1.2-8.4-2.2-13.6-1.9-9.1-1.9-11.1.1-11.1 1.1 0 9.9-5.9 10.9-7.2.3-.4 1.7-1.1 3-1.6 3.3-1.3 3.7.4 1.6 7.1zm-42.1 25.9c2.8 21.1-.5 39.2-8.6 47.8-5.3 5.6-9.7 7.4-18.3 7.4-4.5-.1-9.4-.3-11.1-.6-4.3-.8-22.3-9.1-27.9-12.8l-4.6-3.2 6.2-4.1c3.4-2.3 6.9-4.6 7.7-5.2 7.5-4.7 15.3-9.7 18.9-12.1 2.4-1.6 6.3-4 8.6-5.4 8.2-4.9 16.9-10.6 21.9-14.3 2.8-2 5.4-3.7 5.8-3.7.4 0 1 2.8 1.4 6.2zm-139.7 9.5c6 8.3 8.4 11.2 14.5 17.7 7.5 7.9 7.5 7.7 0 12.7-3.7 2.4-7.4 4.8-8.2 5.4-.9.5-4.1 2.6-7.3 4.7-3.1 2.1-5.9 3.8-6.2 3.8-2.2 0-17-11.6-24.7-19.2l-9.2-9.1 2.4-1.9c1.3-1 4.2-2.8 6.4-4 2.2-1.1 5.6-3.4 7.5-4.9 1.9-1.6 3.9-2.9 4.5-2.9.5-.1 3.7-2 7-4.5 3.3-2.4 6.5-4.4 7.2-4.4.6-.1 3.4 2.9 6.1 6.6zm53 52.5c1.8 1.5 3.7 2.8 4.3 2.8.5 0 3.2 1.6 6 3.5 5.7 3.9 6 3.6-5.6 3.9-6.5.2-21.5-1.6-28.8-3.5-4.7-1.1-4.9-2.5-.6-4.1.9-.4 4.7-2.7 8.4-5.2l6.7-4.6 3.1 2.2c1.8 1.2 4.7 3.4 6.5 5z"/></svg>